<svg width="929" height="777" viewBox="0 0 929 777" fill="none" xmlns="http://www.w3.org/2000/svg">
<path d="M837.21 776.38H827.48C792.21 776.38 753.93 749.11 742.41 715.78L668.71 502.55C668.58 502.113 668.58 501.647 668.71 501.21L769.23 225.13C770.29 222.21 771.99 222.23 773 225.13L922.27 656.95C944.97 722.65 906.69 776.38 837.21 776.38Z" fill="url(#paint0_linear_539_2863)"/>
<path d="M814.81 212.38H770C769.594 212.399 769.201 212.533 768.868 212.766C768.535 213 768.275 213.324 768.12 213.7L587.27 710.58C580.25 729.87 567.463 746.532 550.646 758.303C533.83 770.075 513.797 776.386 493.27 776.38H434.48C413.681 776.379 393.4 769.894 376.46 757.826C359.52 745.757 346.765 728.708 339.97 709.05L267.71 499.97C266.71 497.04 265 496.97 263.94 499.97L184.87 717.19C173.02 749.76 134.96 776.41 100.3 776.41H91.85C21.16 776.41 -16.9 722.06 7.27998 655.63L144.65 278.18C151.67 258.89 164.457 242.229 181.274 230.457C198.09 218.685 218.123 212.374 238.65 212.38H297.38C318.179 212.381 338.46 218.866 355.4 230.935C372.34 243.003 385.095 260.052 391.89 279.71L464.17 488.9C465.17 491.83 466.88 491.84 467.94 488.9L567.48 215.06C567.626 214.761 567.689 214.427 567.664 214.095C567.638 213.763 567.523 213.444 567.333 213.17C567.142 212.897 566.882 212.68 566.579 212.541C566.276 212.402 565.942 212.346 565.61 212.38H522.89C520.23 212.38 519.6 210.84 521.47 208.97L729.72 0.720042C729.933 0.445398 730.218 0.235862 730.544 0.115184C730.87 -0.00549498 731.223 -0.0325021 731.564 0.0372417C731.904 0.106986 732.218 0.270679 732.47 0.509776C732.722 0.748873 732.902 1.05381 732.99 1.39002L816.67 209.63C816.833 209.931 816.911 210.271 816.895 210.613C816.878 210.956 816.768 211.287 816.576 211.57C816.384 211.854 816.118 212.08 815.806 212.222C815.495 212.365 815.15 212.42 814.81 212.38V212.38Z" fill="url(#paint1_linear_539_2863)"/>
<defs>
<linearGradient id="paint0_linear_539_2863" x1="1.19978" y1="499.67" x2="921.35" y2="499.67" gradientUnits="userSpaceOnUse">
<stop stop-color="white"/>
</linearGradient>
<linearGradient id="paint1_linear_539_2863" x1="118058" y1="525079" x2="875974" y2="525079" gradientUnits="userSpaceOnUse">
<stop stop-color="white"/>
</linearGradient>
</defs>
</svg>
